# xmcd CD database file
#
# Track frame offsets:
#	150
#	4887
#	15780
#	19130
#	39780
#	43217
#	62992
#	67487
#	85057
#	88505
#	110680
#	114627
#	135862
#	139090
#	152105
#
# Disc length: 2092 seconds
#
# Revision: 0
# Processed by: cddbd v1.5.1PL0 Copyright (c) Steve Scherf et al.
# Submitted via: CDex 1.51
#
DISCID=c1082a0f
DTITLE=1994年4月・進級記念オリジナルCD特別付録 - 元気な７DAYS 〜一週間を笑顔でのりきるCD〜
DYEAR=1994
DGENRE=JPop
TTITLE0=赤坂泰彦/DJ：Introuction 〜 Monday
TTITLE1=THE BLUE HEARTS/夢
TTITLE2=赤坂泰彦/DJ：Tuesday
TTITLE3=森高千里/勉強の歌
TTITLE4=赤坂泰彦/DJ：Wednesday
TTITLE5=You are the challenger! 〜We Are The Champ 進研ゼミ・オリジナル ヴァージョン〜
TTITLE6=赤坂泰彦/DJ：Thursday
TTITLE7=飯島真理/People! People! People!
TTITLE8=赤坂泰彦/DJ：Friday
TTITLE9=笠原弘子/明日への風
TTITLE10=赤坂泰彦/DJ：Saturday
TTITLE11=パール兄弟/サタデーナイトは in the パーク
TTITLE12=赤坂泰彦/DJ：Sunday
TTITLE13=THE BLUE HEARTS/情熱の薔薇
TTITLE14=赤坂泰彦/DJ：Ending
EXTD=YEAR: 1994
EXTT0=
EXTT1=
EXTT2=
EXTT3=
EXTT4=
EXTT5=
EXTT6=
EXTT7=
EXTT8=
EXTT9=
EXTT10=
EXTT11=
EXTT12=
EXTT13=
EXTT14=
PLAYORDER=
